<svg width="160" height="160" viewBox="0 0 160 160" fill="none" xmlns="http://www.w3.org/2000/svg">
<path d="M124.967 51.0744C125.719 52.5154 126.176 54.1544 126.176 55.8924V76.9944C126.176 81.6104 123.084 85.5214 118.93 86.8944C117.605 90.8814 115.152 94.7484 110.879 97.3264C102.203 102.557 79.755 102.163 79.681 102.163C79.603 102.163 57.168 102.558 48.492 97.3264C44.276 94.7813 41.784 90.9794 40.45 87.0474C36.032 85.8384 32.694 81.7963 32.694 76.9944V55.8934C32.694 54.2054 33.121 52.6114 33.833 51.2004C30.17 52.1094 26 53.9184 26 57.4344C26 63.6774 26 83.1213 26 87.4174C26 97.6684 37.839 111.85 79.657 111.85C121.477 111.85 133.314 97.6684 133.314 87.4174C133.314 83.1213 133.314 63.6774 133.314 57.4344C133.313 53.7504 128.738 51.9404 124.967 51.0744Z" fill="#363636"/>
<path d="M46.561 85.4594H112.084C117.648 85.4594 122.158 80.9464 122.158 75.3824V56.9354C122.158 51.3724 117.648 46.8604 112.084 46.8604H46.561C40.997 46.8604 36.486 51.3714 36.486 56.9354V75.3824C36.486 80.9464 40.997 85.4594 46.561 85.4594ZM109.695 56.4684C110.562 56.4684 111.264 57.1714 111.264 58.0384C111.264 58.9044 110.562 59.6074 109.695 59.6074C108.828 59.6074 108.127 58.9044 108.127 58.0384C108.127 57.1704 108.828 56.4684 109.695 56.4684ZM109.695 60.5074C110.562 60.5074 111.264 61.2104 111.264 62.0754C111.264 62.9424 110.562 63.6444 109.695 63.6444C108.828 63.6444 108.127 62.9424 108.127 62.0754C108.127 61.2104 108.828 60.5074 109.695 60.5074ZM109.695 64.5464C110.562 64.5464 111.264 65.2484 111.264 66.1154C111.264 66.9813 110.562 67.6844 109.695 67.6844C108.828 67.6844 108.127 66.9813 108.127 66.1154C108.127 65.2484 108.828 64.5464 109.695 64.5464ZM109.695 68.3734C110.562 68.3734 111.264 69.0774 111.264 69.9424C111.264 70.8094 110.562 71.5104 109.695 71.5104C108.828 71.5104 108.127 70.8094 108.127 69.9424C108.127 69.0764 108.828 68.3734 109.695 68.3734ZM109.695 72.4124C110.562 72.4124 111.264 73.1144 111.264 73.9814C111.264 74.8464 110.562 75.5494 109.695 75.5494C108.828 75.5494 108.127 74.8454 108.127 73.9814C108.127 73.1144 108.828 72.4124 109.695 72.4124ZM105.656 56.4684C106.523 56.4684 107.224 57.1714 107.224 58.0384C107.224 58.9044 106.523 59.6074 105.656 59.6074C104.791 59.6074 104.088 58.9044 104.088 58.0384C104.088 57.1704 104.791 56.4684 105.656 56.4684ZM105.656 72.4124C106.523 72.4124 107.224 73.1144 107.224 73.9814C107.224 74.8464 106.523 75.5494 105.656 75.5494C104.791 75.5494 104.088 74.8454 104.088 73.9814C104.088 73.1144 104.791 72.4124 105.656 72.4124ZM101.619 56.4684C102.484 56.4684 103.187 57.1714 103.187 58.0384C103.187 58.9044 102.484 59.6074 101.619 59.6074C100.752 59.6074 100.05 58.9044 100.05 58.0384C100.05 57.1704 100.752 56.4684 101.619 56.4684ZM101.619 60.5074C102.484 60.5074 103.187 61.2104 103.187 62.0754C103.187 62.9424 102.484 63.6444 101.619 63.6444C100.752 63.6444 100.05 62.9424 100.05 62.0754C100.05 61.2104 100.752 60.5074 101.619 60.5074ZM101.619 64.5464C102.484 64.5464 103.187 65.2484 103.187 66.1154C103.187 66.9813 102.484 67.6844 101.619 67.6844C100.752 67.6844 100.05 66.9813 100.05 66.1154C100.05 65.2484 100.752 64.5464 101.619 64.5464ZM101.619 68.3734C102.484 68.3734 103.187 69.0774 103.187 69.9424C103.187 70.8094 102.484 71.5104 101.619 71.5104C100.752 71.5104 100.05 70.8094 100.05 69.9424C100.05 69.0764 100.752 68.3734 101.619 68.3734ZM101.619 72.4124C102.484 72.4124 103.187 73.1144 103.187 73.9814C103.187 74.8464 102.484 75.5494 101.619 75.5494C100.752 75.5494 100.05 74.8454 100.05 73.9814C100.05 73.1144 100.752 72.4124 101.619 72.4124ZM93.965 56.4684C94.832 56.4684 95.533 57.1714 95.533 58.0384C95.533 58.9044 94.832 59.6074 93.965 59.6074C93.098 59.6074 92.397 58.9044 92.397 58.0384C92.396 57.1704 93.1 56.4684 93.965 56.4684ZM93.965 64.5464C94.832 64.5464 95.533 65.2484 95.533 66.1154C95.533 66.9813 94.832 67.6844 93.965 67.6844C93.098 67.6844 92.397 66.9813 92.397 66.1154C92.396 65.2484 93.1 64.5464 93.965 64.5464ZM93.965 68.4274C94.832 68.4274 95.533 69.1284 95.533 69.9954C95.533 70.8604 94.832 71.5644 93.965 71.5644C93.098 71.5644 92.397 70.8604 92.397 69.9954C92.396 69.1284 93.1 68.4274 93.965 68.4274ZM93.965 72.4124C94.832 72.4124 95.533 73.1144 95.533 73.9814C95.533 74.8464 94.832 75.5494 93.965 75.5494C93.098 75.5494 92.397 74.8454 92.397 73.9814C92.396 73.1144 93.1 72.4124 93.965 72.4124ZM89.926 56.4684C90.793 56.4684 91.496 57.1714 91.496 58.0384C91.496 58.9044 90.793 59.6074 89.926 59.6074C89.061 59.6074 88.357 58.9044 88.357 58.0384C88.356 57.1704 89.061 56.4684 89.926 56.4684ZM89.926 64.5464C90.793 64.5464 91.496 65.2484 91.496 66.1154C91.496 66.9813 90.793 67.6844 89.926 67.6844C89.061 67.6844 88.357 66.9813 88.357 66.1154C88.356 65.2484 89.061 64.5464 89.926 64.5464ZM89.926 72.4124C90.793 72.4124 91.496 73.1144 91.496 73.9814C91.496 74.8464 90.793 75.5494 89.926 75.5494C89.061 75.5494 88.357 74.8454 88.357 73.9814C88.356 73.1144 89.061 72.4124 89.926 72.4124ZM85.888 56.4684C86.753 56.4684 87.457 57.1714 87.457 58.0384C87.457 58.9044 86.753 59.6074 85.888 59.6074C85.021 59.6074 84.32 58.9044 84.32 58.0384C84.319 57.1704 85.021 56.4684 85.888 56.4684ZM85.888 60.5074C86.753 60.5074 87.457 61.2104 87.457 62.0754C87.457 62.9424 86.753 63.6444 85.888 63.6444C85.021 63.6444 84.32 62.9424 84.32 62.0754C84.319 61.2104 85.021 60.5074 85.888 60.5074ZM85.888 64.5464C86.753 64.5464 87.457 65.2484 87.457 66.1154C87.457 66.9813 86.753 67.6844 85.888 67.6844C85.021 67.6844 84.32 66.9813 84.32 66.1154C84.319 65.2484 85.021 64.5464 85.888 64.5464ZM85.888 72.4124C86.753 72.4124 87.457 73.1144 87.457 73.9814C87.457 74.8464 86.753 75.5494 85.888 75.5494C85.021 75.5494 84.32 74.8454 84.32 73.9814C84.319 73.1144 85.021 72.4124 85.888 72.4124ZM77.598 56.4684C78.465 56.4684 79.167 57.1714 79.167 58.0384C79.167 58.9044 78.465 59.6074 77.598 59.6074C76.731 59.6074 76.03 58.9044 76.03 58.0384C76.029 57.1704 76.731 56.4684 77.598 56.4684ZM77.598 60.5074C78.465 60.5074 79.167 61.2104 79.167 62.0754C79.167 62.9424 78.465 63.6444 77.598 63.6444C76.731 63.6444 76.03 62.9424 76.03 62.0754C76.029 61.2104 76.731 60.5074 77.598 60.5074ZM77.598 64.5464C78.465 64.5464 79.167 65.2484 79.167 66.1154C79.167 66.9813 78.465 67.6844 77.598 67.6844C76.731 67.6844 76.03 66.9813 76.03 66.1154C76.029 65.2484 76.731 64.5464 77.598 64.5464ZM77.598 68.4274C78.465 68.4274 79.167 69.1284 79.167 69.9954C79.167 70.8604 78.465 71.5644 77.598 71.5644C76.731 71.5644 76.03 70.8604 76.03 69.9954C76.029 69.1284 76.731 68.4274 77.598 68.4274ZM77.598 72.4124C78.465 72.4124 79.167 73.1144 79.167 73.9814C79.167 74.8464 78.465 75.5494 77.598 75.5494C76.731 75.5494 76.03 74.8454 76.03 73.9814C76.029 73.1144 76.731 72.4124 77.598 72.4124ZM73.559 60.5074C74.426 60.5074 75.127 61.2104 75.127 62.0754C75.127 62.9424 74.426 63.6444 73.559 63.6444C72.692 63.6444 71.99 62.9424 71.99 62.0754C71.99 61.2104 72.691 60.5074 73.559 60.5074ZM65.057 60.2954C65.922 60.2954 66.626 60.9984 66.626 61.8634C66.626 62.7304 65.922 63.4324 65.057 63.4324C64.19 63.4324 63.486 62.7294 63.486 61.8634C63.486 60.9984 64.189 60.2954 65.057 60.2954ZM65.057 64.3334C65.922 64.3334 66.626 65.0364 66.626 65.9034C66.626 66.7694 65.922 67.4734 65.057 67.4734C64.19 67.4734 63.486 66.7694 63.486 65.9034C63.486 65.0364 64.189 64.3334 65.057 64.3334ZM61.018 56.2554C61.883 56.2554 62.586 56.9584 62.586 57.8254C62.586 58.6914 61.882 59.3934 61.018 59.3934C60.151 59.3934 59.449 58.6904 59.449 57.8254C59.449 56.9584 60.15 56.2554 61.018 56.2554ZM61.018 60.2954C61.883 60.2954 62.586 60.9984 62.586 61.8634C62.586 62.7304 61.882 63.4324 61.018 63.4324C60.151 63.4324 59.449 62.7294 59.449 61.8634C59.449 60.9984 60.15 60.2954 61.018 60.2954ZM61.018 64.3334C61.883 64.3334 62.586 65.0364 62.586 65.9034C62.586 66.7694 61.882 67.4734 61.018 67.4734C60.151 67.4734 59.449 66.7694 59.449 65.9034C59.449 65.0364 60.15 64.3334 61.018 64.3334ZM61.018 68.3734C61.883 68.3734 62.586 69.0774 62.586 69.9424C62.586 70.8094 61.882 71.5104 61.018 71.5104C60.151 71.5104 59.449 70.8094 59.449 69.9424C59.449 69.0764 60.15 68.3734 61.018 68.3734ZM56.764 60.2954C57.631 60.2954 58.333 60.9984 58.333 61.8634C58.333 62.7304 57.631 63.4324 56.764 63.4324C55.897 63.4324 55.196 62.7294 55.196 61.8634C55.196 60.9984 55.897 60.2954 56.764 60.2954ZM56.764 64.3334C57.631 64.3334 58.333 65.0364 58.333 65.9034C58.333 66.7694 57.631 67.4734 56.764 67.4734C55.897 67.4734 55.196 66.7694 55.196 65.9034C55.196 65.0364 55.897 64.3334 56.764 64.3334ZM56.764 68.3734C57.631 68.3734 58.333 69.0774 58.333 69.9424C58.333 70.8094 57.631 71.5104 56.764 71.5104C55.897 71.5104 55.196 70.8094 55.196 69.9424C55.196 69.0764 55.897 68.3734 56.764 68.3734ZM56.764 72.4124C57.631 72.4124 58.333 73.1144 58.333 73.9814C58.333 74.8464 57.631 75.5494 56.764 75.5494C55.897 75.5494 55.196 74.8454 55.196 73.9814C55.196 73.1144 55.897 72.4124 56.764 72.4124ZM52.3 56.2554C53.167 56.2554 53.871 56.9584 53.871 57.8254C53.871 58.6914 53.167 59.3934 52.3 59.3934C51.435 59.3934 50.731 58.6904 50.731 57.8254C50.731 56.9584 51.435 56.2554 52.3 56.2554ZM52.3 60.2954C53.167 60.2954 53.871 60.9984 53.871 61.8634C53.871 62.7304 53.167 63.4324 52.3 63.4324C51.435 63.4324 50.731 62.7294 50.731 61.8634C50.731 60.9984 51.435 60.2954 52.3 60.2954ZM52.3 64.3334C53.167 64.3334 53.871 65.0364 53.871 65.9034C53.871 66.7694 53.167 67.4734 52.3 67.4734C51.435 67.4734 50.731 66.7694 50.731 65.9034C50.731 65.0364 51.435 64.3334 52.3 64.3334ZM52.3 68.3734C53.167 68.3734 53.871 69.0774 53.871 69.9424C53.871 70.8094 53.167 71.5104 52.3 71.5104C51.435 71.5104 50.731 70.8094 50.731 69.9424C50.731 69.0764 51.435 68.3734 52.3 68.3734ZM48.263 60.2954C49.128 60.2954 49.832 60.9984 49.832 61.8634C49.832 62.7304 49.128 63.4324 48.263 63.4324C47.396 63.4324 46.694 62.7294 46.694 61.8634C46.694 60.9984 47.396 60.2954 48.263 60.2954ZM48.263 64.3334C49.128 64.3334 49.832 65.0364 49.832 65.9034C49.832 66.7694 49.128 67.4734 48.263 67.4734C47.396 67.4734 46.694 66.7694 46.694 65.9034C46.694 65.0364 47.396 64.3334 48.263 64.3334Z" fill="#363636"/>
</svg>
