<svg width="16" height="17" viewBox="0 0 16 17" fill="none" xmlns="http://www.w3.org/2000/svg">
<g clip-path="url(#clip0_11518_3303)">
<path d="M15.7 14.6569L12.6 11.5569C13.5 10.3569 14 8.95693 14 7.35693C14 3.45693 10.9 0.356934 7 0.356934C3.1 0.356934 0 3.45693 0 7.35693C0 11.2569 3.1 14.3569 7 14.3569C8.6 14.3569 10 13.8569 11.2 12.9569L14.3 16.0569C14.5 16.2569 14.7 16.3569 15 16.3569C15.6 16.3569 16 15.9569 16 15.3569C16 15.1569 15.9 14.8569 15.7 14.6569ZM2 7.35693C2 4.55693 4.2 2.35693 7 2.35693C9.8 2.35693 12 4.55693 12 7.35693C12 10.1569 9.8 12.3569 7 12.3569C4.2 12.3569 2 10.1569 2 7.35693Z" fill="black"/>
</g>
<defs>
<clipPath id="clip0_11518_3303">
<rect width="16" height="16" fill="white" transform="translate(0 0.356934)"/>
</clipPath>
</defs>
</svg>
